PathFileType	3	(X/Y/Z)	D:\minhoCalibration\240510\subject1_KPNP\preferred\preferred07.trc
DataRate	CameraRate	NumFrames	NumMarkers	Units	OrigDataRate	OrigDataStartFrame	OrigNumFrames
200.0	200.0	36	10	mm	200.0	564	252	
Frame#	Time	Left_Ankle_Outer1			Left_Ankle_Inner1			Left_Knee_Outer1			Left_Knee_Inner1			Left_Wrist1			Right_Wrist1			Right_Knee_Inner1			Right_Knee_Outer1			Right_Ankle_Inner1			Right_Ankle_Outer1			
		X1	Y1	Z1	X2	Y2	Z2	X3	Y3	Z3	X4	Y4	Z4	X5	Y5	Z5	X6	Y6	Z6	X7	Y7	Z7	X8	Y8	Z8	X9	Y9	Z9	X10	Y10	Z10	
564	2.81	-511.45535	121.07819	-579.10602	-559.69147	130.46146	-549.65594	-376.50592	529.0108	-408.19412	-488.75372	511.15024	-403.08896	-340.14975	992.31445	-486.07669	-677.81738	1037.3093	-573.75562	-632.49146	572.66443	-427.48688	-733.92407	591.18872	-477.43597	-680.98242	142.24072	-503.38281	-788.39209	132.18214	-501.47568
565	2.815	-511.42084	120.83966	-579.62933	-559.62036	130.20654	-550.19061	-377.37872	529.60175	-410.36374	-489.89548	512.01324	-404.78018	-340.8107	993.10846	-485.306	-677.12079	1038.7336	-577.13287	-633.52338	574.82538	-429.14493	-734.60773	592.84991	-480.42862	-680.00311	143.80154	-509.20325	-787.4118	133.95032	-510.61636
566	2.82	-511.52145	120.51696	-580.0603	-559.69562	129.99652	-550.677	-378.32849	530.20135	-412.48135	-490.60181	512.06378	-408.33386	-341.33981	993.8465	-484.72397	-676.42267	1039.9879	-580.25055	-634.75702	576.65375	-431.10983	-735.22205	594.4917	-483.49512	-679.03754	145.46231	-515.13214	-786.21631	135.4026	-519.92706
567	2.825	-511.63925	120.33023	-580.4834	-559.73181	129.76315	-551.02258	-379.26697	530.69604	-414.53189	-491.30841	512.57635	-411.01593	-341.97565	994.50812	-484.12045	-675.75372	1041.1062	-583.1366	-636.26929	578.17065	-432.98834	-735.75836	596.09247	-486.6235	-678.138	146.88724	-521.37921	-785.14966	136.6086	-528.88556
568	2.83	-511.75903	120.14771	-580.88873	-559.91797	129.58786	-551.24731	-380.13928	531.20258	-416.57834	-492.05118	514.52722	-411.33398	-342.53827	995.14508	-483.57547	-675.16943	1042.1876	-585.95581	-637.99872	579.45074	-434.68701	-736.36658	597.51001	-489.86615	-676.95831	148.39407	-527.81281	-783.95392	138.24135	-538.59851
569	2.835	-512.11072	119.92814	-581.14099	-560.13989	129.40207	-551.51544	-381.08295	531.67053	-418.55496	-492.89227	514.81287	-413.36139	-343.02164	995.72809	-483.03546	-674.42273	1043.0996	-588.65601	-639.83167	580.35931	-436.47351	-736.93604	598.85303	-493.23758	-675.86591	149.81006	-534.42932	-782.38293	139.97607	-548.54279
570	2.84	-512.4303	119.74546	-581.43256	-560.46069	129.16301	-551.77533	-382.01151	532.03546	-420.53342	-493.74521	515.35687	-415.37079	-343.49969	996.34363	-482.53659	-673.72455	1043.8524	-591.2475	-641.8941	581.02545	-438.06149	-737.57825	600.05585	-496.64465	-674.54742	151.23463	-541.40857	-780.8678	141.76849	-559.38129
571	2.845	-512.82751	119.52382	-581.71307	-560.80371	128.9619	-552.03577	-382.93683	532.32947	-422.41306	-494.59949	515.93829	-417.10095	-343.85327	996.95581	-481.99622	-673.1142	1044.4114	-593.71912	-644.06476	581.43854	-439.73404	-738.20612	601.07947	-500.17648	-673.33856	152.5565	-548.69025	-778.93335	143.07236	-568.95056
572	2.85	-513.16199	119.3267	-581.9906	-561.12671	128.85338	-552.23682	-383.88483	532.66766	-424.15839	-495.44022	516.38159	-418.9389	-344.23587	997.46417	-481.44022	-672.39673	1044.9489	-596.17743	-646.19293	581.6297	-441.40414	-738.84491	601.90472	-503.65121	-672.05157	154.12529	-556.13049	-777.19226	144.99107	-579.60681
573	2.855	-513.54919	119.05559	-582.20026	-561.45575	128.52054	-552.41174	-384.96506	533.01349	-425.75488	-496.44949	516.80713	-420.58719	-344.43015	997.92328	-480.87003	-671.64642	1045.408	-598.57257	-648.1582	581.6424	-443.29831	-739.47614	602.62122	-507.16788	-670.58203	155.45412	-563.81152	-775.33844	146.51784	-589.8783
574	2.86	-513.83582	118.7161	-582.46539	-561.76691	128.24661	-552.60339	-386.05414	533.26733	-427.20065	-497.36307	517.159	-422.32758	-344.77841	998.43292	-480.11115	-670.87213	1045.6288	-600.88184	-650.11163	581.54449	-445.28946	-740.03558	603.1601	-510.60654	-669.06262	156.70073	-571.75079	-773.22302	148.1096	-600.14587
575	2.865	-514.17896	118.40591	-582.67267	-561.94537	127.98166	-552.78143	-387.41516	533.66071	-428.26871	-498.5816	517.31311	-423.69562	-344.76758	998.8562	-479.75092	-669.99542	1045.8433	-603.08545	-651.88977	581.30835	-447.37369	-740.50598	603.56409	-514.01001	-667.35223	158.09404	-579.98145	-770.9715	149.7532	-610.64575
576	2.87	-514.39233	118.0509	-582.93597	-562.19604	127.66841	-553.10175	-388.35477	533.62207	-429.73001	-499.40137	517.60767	-425.58005	-345.00729	999.24976	-479.0715	-669.11261	1045.8934	-605.19159	-653.52197	581.0506	-449.66168	-741.08032	603.93335	-517.48645	-665.60736	159.45598	-588.40564	-768.62103	151.55078	-621.12921
577	2.875	-514.54529	117.71523	-583.23468	-562.46655	127.30009	-553.53967	-389.51608	533.74481	-430.77692	-500.39362	517.87408	-427.06601	-345.61652	999.55316	-478.00949	-668.24719	1045.9332	-607.28693	-655.13263	580.64404	-452.04718	-741.49994	604.15271	-520.76056	-663.68842	160.77982	-597.16211	-766.18115	153.2171	-631.65552
578	2.88	-514.69293	117.23898	-583.5238	-562.61157	126.82188	-553.90363	-390.65344	533.73279	-431.69193	-501.48529	517.02106	-430.88004	-345.60083	999.7594	-477.6192	-667.37811	1045.8661	-609.31934	-656.59607	580.14655	-454.64838	-742.01636	604.24756	-524.08136	-661.83514	162.10239	-605.60974	-763.60767	155.11032	-642.48517
579	2.885	-514.70001	116.80843	-583.84399	-562.64209	126.33504	-554.25818	-391.85254	533.64429	-432.45322	-502.58768	516.04089	-434.20013	-346.45215	999.92548	-476.53015	-666.51154	1045.7548	-611.25311	-657.67853	579.38306	-457.41095	-742.67334	604.14398	-527.52991	-659.48206	163.39244	-614.93036	-761.21509	156.76854	-652.65894
580	2.89	-514.58612	116.27039	-584.18976	-562.63995	125.79894	-554.6571	-393.00854	533.5163	-433.08862	-503.1969	516.84509	-434.61542	-346.88455	1000.0415	-475.79626	-665.74957	1045.5625	-613.13904	-658.93408	578.64966	-460.28735	-743.13733	603.87134	-530.84412	-657.14819	164.838	-624.06683	-758.40625	158.48785	-663.06665
581	2.895	-514.42664	115.76161	-584.48083	-562.67169	125.18526	-555.19263	-394.02902	533.24091	-433.69357	-504.53793	515.82007	-437.15363	-347.41211	1000.0228	-475.03586	-664.99536	1045.3064	-615.03809	-660.25934	577.85339	-462.96115	-743.53766	603.63702	-534.15076	-654.71765	166.26187	-633.32843	-755.64685	160.2957	-673.36804
582	2.9	-514.32471	115.0507	-584.73291	-562.50214	124.68124	-555.92883	-394.99371	532.99469	-434.15692	-505.81085	517.6524	-433.68057	-347.65692	999.91333	-474.50256	-664.34302	1044.9982	-616.89886	-661.18323	576.84943	-465.98627	-744.05267	603.24127	-537.55646	-652.14154	167.77322	-642.62518	-752.71173	162.02942	-683.70856
583	2.905	-514.04163	114.55643	-585.1123	-561.70459	124.22643	-557.85187	-396.08441	532.67487	-434.48904	-505.75732	515.27515	-441.47693	-348.64651	999.77576	-473.39847	-663.82965	1044.7075	-618.75671	-662.04974	575.82629	-469.04868	-744.53699	602.70563	-541.06299	-649.33466	169.31526	-652.01807	-749.68304	163.85376	-693.95282
584	2.91	-513.79803	113.98895	-585.42151	-562.1275	123.16671	-557.69598	-397.38742	532.40509	-434.43491	-507.11398	515.5741	-440.23392	-349.08401	999.49902	-472.84015	-663.34174	1044.2174	-620.5957	-662.96625	574.68726	-472.49719	-745.06775	602.11731	-544.70294	-646.40607	170.75697	-661.32007	-746.4751	165.53062	-704.1228
585	2.915	-513.48956	113.27171	-585.7959	-561.93433	122.61793	-558.21423	-398.23611	532.0481	-434.65851	-507.87167	515.20264	-441.25638	-350.55515	999.17731	-471.5679	-662.88715	1043.6085	-622.38818	-663.80145	573.41803	-475.89639	-745.58777	601.43268	-548.31079	-643.33649	172.38081	-670.68005	-743.20917	167.23048	-714.05585
586	2.92	-513.20386	112.81247	-586.04053	-561.70667	121.96947	-558.71497	-399.14951	531.64563	-434.81638	-508.62473	514.74261	-442.29935	-351.03232	998.88104	-470.98715	-662.5155	1043.0621	-624.08978	-664.63068	572.07416	-479.25684	-746.1463	600.63959	-552.18439	-640.08197	173.85001	-679.87079	-739.76813	168.93292	-723.96118
587	2.925	-512.87109	112.21292	-586.38464	-561.58929	121.26575	-559.19641	-399.91873	531.23834	-434.90744	-509.31882	514.22931	-443.12506	-351.50906	998.45361	-470.48468	-661.86969	1042.4773	-625.98175	-665.56311	570.79633	-482.71478	-746.72687	599.64972	-556.17853	-636.73889	175.40428	-688.97925	-735.97339	170.41856	-733.64514
588	2.93	-512.53766	111.59449	-586.68732	-561.45758	120.64135	-559.66125	-400.65237	530.82672	-434.90308	-509.94861	513.69678	-443.81729	-352.25894	997.96802	-469.79349	-661.43475	1042.0256	-627.78845	-666.57556	569.48474	-486.3139	-747.1106	598.90393	-560.21802	-633.08459	176.94916	-697.93713	-732.17529	172.02498	-743.29901
589	2.935	-512.25726	111.04407	-586.98486	-561.42804	119.98509	-560.08276	-401.35855	530.39886	-434.88208	-510.54239	513.21826	-444.43726	-353.35086	997.52698	-468.84067	-661.00861	1040.9116	-629.54651	-667.6405	568.29626	-490.13464	-747.40057	597.87195	-564.47369	-629.31189	178.60602	-706.8681	-728.22821	173.45912	-752.65503
590	2.94	-512.11816	110.25438	-587.2959	-561.35687	119.36808	-560.56549	-402.11417	529.98438	-434.84125	-511.10046	512.69678	-445.08768	-354.18967	996.99689	-468.20767	-660.45459	1039.9197	-631.01068	-668.55444	566.85376	-494.04172	-747.65009	596.90955	-569.01172	-625.49957	180.10844	-715.40155	-724.125	174.92853	-762.08325
591	2.945	-512.01331	109.72155	-587.50708	-561.34857	118.82617	-561.02563	-402.75867	529.49561	-434.73492	-511.72739	512.20654	-445.51056	-354.87009	996.41321	-467.7417	-660.1048	1039.1233	-632.82709	-669.57196	565.37634	-498.18338	-747.87677	595.8028	-573.58289	-621.57611	181.554	-723.80725	-719.85913	176.28145	-771.24854
592	2.95	-512.12299	108.96263	-587.56763	-561.49524	118.23126	-561.29608	-403.37512	529.0578	-434.60425	-512.28217	511.84177	-445.68283	-355.76022	995.83936	-467.17361	-659.87524	1038.394	-634.67383	-670.49524	563.98834	-502.17288	-748.05054	594.64191	-578.38025	-617.4007	182.91968	-732.0603	-715.38885	177.60684	-780.26758
593	2.955	-512.13281	108.38644	-587.6889	-561.63068	117.63652	-561.51648	-403.99704	528.57019	-434.40854	-512.8045	511.31238	-445.96542	-356.60587	995.20776	-466.6492	-659.6413	1037.639	-636.47528	-671.55609	562.63141	-506.24008	-748.10889	593.39014	-583.44745	-613.21765	184.30856	-739.97906	-710.7796	178.72946	-789.03363
594	2.96	-512.17554	107.93981	-587.8255	-561.77765	117.07812	-561.73755	-404.64285	528.07233	-434.18356	-513.40356	510.79297	-446.1778	-357.50824	994.60693	-466.21298	-659.18848	1036.5494	-638.2782	-672.42322	560.93652	-510.46597	-748.04797	592.2962	-588.70569	-608.8761	185.61865	-747.6723	-706.07153	179.82309	-797.6167
595	2.965	-512.49567	107.36616	-587.76398	-561.9303	116.49771	-561.85266	-405.2478	527.56567	-433.91757	-513.92474	510.35504	-446.19196	-358.42416	994.02759	-465.82562	-659.07782	1035.7338	-639.87006	-673.36725	559.25439	-514.93561	-747.95148	590.90375	-593.89655	-604.48914	186.73508	-755.15558	-701.19659	180.85661	-806.03027
596	2.97	-512.63855	106.89091	-587.81708	-562.39917	116.1721	-561.19263	-405.95404	527.08801	-433.60773	-514.55878	509.88632	-446.24661	-359.37161	993.4353	-465.46103	-658.7691	1034.746	-641.53375	-674.20367	557.64294	-519.15552	-747.74237	589.56024	-599.32617	-600.00098	187.87096	-762.39032	-696.20581	181.86865	-814.17792
597	2.975	-512.97546	106.35755	-587.80469	-562.63971	115.6432	-561.41382	-406.54257	526.62146	-433.28955	-515.10242	509.40298	-446.35501	-360.29776	992.83575	-465.1463	-658.53717	1033.8063	-643.23975	-675.00165	555.95599	-523.67804	-747.4472	588.23645	-604.88794	-595.39252	188.81863	-769.33704	-691.13538	182.68282	-822.13763
598	2.98	-513.28351	105.95316	-587.78674	-563.01062	115.17834	-561.36627	-407.13632	526.13507	-432.83578	-515.63934	508.99338	-446.20193	-361.20032	992.25885	-465.04294	-658.31787	1032.8669	-644.90588	-675.85339	554.45892	-528.237	-746.90564	586.89661	-610.55127	-590.78021	189.7513	-776.02032	-685.85315	183.51167	-829.89819
599	2.985	-513.67328	105.49249	-587.70007	-563.29407	114.71234	-561.32379	-407.81104	525.69397	-432.41193	-516.19568	508.61041	-445.92844	-362.15509	991.69196	-464.91144	-658.14087	1032.0304	-646.67102	-676.33636	552.71375	-532.69214	-746.15729	585.5993	-616.10046	-586.16034	190.54187	-782.3689	-680.52344	184.27803	-837.49164
